<svg width="1200" height="628" viewBox="0 0 1200 628" fill="none" xmlns="http://www.w3.org/2000/svg">
<g clip-path="url(#clip0_2076_4968)">
<g clip-path="url(#clip1_2076_4968)">
<mask id="mask0_2076_4968" style="mask-type:luminance" maskUnits="userSpaceOnUse" x="0" y="-24" width="1200" height="675">
<path d="M1200 -24H0V651H1200V-24Z" fill="white"/>
</mask>
<g mask="url(#mask0_2076_4968)">
<path d="M1200 -24H0V651H1200V-24Z" fill="#25212B"/>
<path d="M1200 -24.3125H0V650.688H1200V-24.3125Z" fill="url(#paint0_linear_2076_4968)"/>
<path opacity="0.25" d="M1418.75 843.944V396.181C1418.75 388.793 1414.81 381.969 1408.41 378.274L1020.65 154.396C1014.26 150.702 1006.37 150.702 999.975 154.396L612.214 378.274C605.817 381.969 601.875 388.793 601.875 396.181V843.944C601.875 851.331 605.817 858.156 612.214 861.85L999.975 1085.73C1006.37 1089.42 1014.26 1089.42 1020.65 1085.73L1408.41 861.85C1414.81 858.156 1418.75 851.331 1418.75 843.944Z" fill="url(#paint1_linear_2076_4968)"/>
<path opacity="0.25" d="M-215 -257.571V190.192C-215 197.581 -211.058 204.405 -204.661 208.1L183.099 431.977C189.495 435.672 197.38 435.672 203.776 431.977L591.536 208.1C597.933 204.405 601.875 197.581 601.875 190.192V-257.571C601.875 -264.959 597.933 -271.783 591.536 -275.478L203.776 -499.356C197.38 -503.05 189.495 -503.05 183.099 -499.356L-204.661 -275.478C-211.058 -271.783 -215 -264.953 -215 -257.571Z" fill="url(#paint2_linear_2076_4968)"/>
<path opacity="0.5" d="M1008.44 539.606V86.4538C1008.44 78.9763 1004.49 72.07 998.1 68.3313L610.339 -158.242C603.942 -161.981 596.058 -161.981 589.661 -158.242L201.901 68.3313C195.505 72.07 191.562 78.9763 191.562 86.4538V539.606C191.562 547.084 195.505 553.99 201.901 557.729L589.661 784.3C596.058 788.044 603.942 788.044 610.339 784.3L998.1 557.729C1004.49 553.99 1008.44 547.084 1008.44 539.606Z" fill="url(#paint3_linear_2076_4968)"/>
</g>
</g>
<path fill-rule="evenodd" clip-rule="evenodd" d="M555.218 529.7L555.211 529.693L386.783 430.981C380.11 427.048 376 419.825 376 411.992V214.56C376 206.73 380.108 199.508 386.778 195.575L386.783 195.572L555.209 96.946L555.218 96.9407C561.872 93.0198 570.01 93.0198 576.663 96.9407L576.672 96.946L672.292 152.937L728.317 120.13L728.329 120.123C729.519 119.414 730.882 119.04 732.269 119.041C733.652 119.041 735.011 119.415 736.206 120.123L736.22 120.13L816.236 166.987L816.24 166.988C818.712 168.444 820.239 171.126 820.239 174.05V267.858C820.239 270.782 818.712 273.465 816.24 274.919L816.236 274.92L755.881 310.294V411.992C755.881 419.825 751.767 427.048 745.099 430.981L576.672 529.693L576.663 529.7C570.01 533.621 561.872 533.621 555.218 529.7Z" fill="url(#paint4_linear_2076_4968)" fill-opacity="0.65"/>
<path d="M730.052 301.915L730.043 301.911L666.868 264.884L666.863 264.883C664.916 263.733 663.706 261.616 663.706 259.308V185.245C663.706 182.938 664.916 180.821 666.863 179.671L666.868 179.67L730.043 142.676L730.052 142.671C730.992 142.111 732.068 141.816 733.163 141.816C734.257 141.816 735.33 142.111 736.27 142.671L736.281 142.676L799.455 179.67L799.459 179.671C801.408 180.82 802.614 182.938 802.614 185.246V259.307C802.614 261.616 801.408 263.733 799.459 264.882L799.455 264.883L736.278 301.91L736.27 301.914C735.33 302.473 734.257 302.768 733.163 302.769C732.068 302.769 730.992 302.474 730.052 301.915Z" fill="url(#paint5_linear_2076_4968)" fill-opacity="0.65" stroke="#E66124" stroke-width="2"/>
<path d="M724.729 256.431V188.156H741.59V256.431L724.729 256.431ZM699.715 230.033V214.553H766.609V230.033H699.715Z" fill="white"/>
<path fill-rule="evenodd" clip-rule="evenodd" d="M563.05 496.743L563.056 496.75C568.624 500.03 575.435 500.03 581.002 496.75L581.011 496.743L721.961 414.135C727.544 410.843 730.984 404.799 730.984 398.243V302.329C730.626 302.198 730.282 302.035 729.952 301.841L729.943 301.836L666.771 264.81L666.766 264.809C664.819 263.659 663.606 261.542 663.606 259.234V185.173C663.606 184.472 663.719 183.788 663.931 183.145L581.011 134.59L581.002 134.586C575.435 131.305 568.624 131.305 563.056 134.586L563.049 134.59L422.098 217.127L422.093 217.13C416.511 220.421 413.074 226.465 413.074 233.018V398.243C413.074 404.799 416.513 410.843 422.098 414.135L563.05 496.743Z" fill="url(#paint6_linear_2076_4968)" fill-opacity="0.65"/>
<path d="M563.057 496.75L562.431 497.798L562.436 497.802L563.057 496.75ZM563.051 496.743L563.678 495.695L563.673 495.691H563.669L563.051 496.743ZM581.004 496.75L580.459 495.652L580.42 495.674L580.382 495.695L581.004 496.75ZM581.012 496.743L581.556 497.841L581.594 497.82L581.63 497.798L581.012 496.743ZM721.962 414.135L722.581 415.19L722.586 415.187L721.962 414.135ZM730.985 302.329H732.21V301.472L731.406 301.179L730.985 302.329ZM729.954 301.84L729.325 302.89L729.332 302.894L729.954 301.84ZM729.944 301.836L730.573 300.786L730.568 300.784L730.561 300.782L729.944 301.836ZM666.772 264.81L667.389 263.755L667.356 263.734L667.316 263.716L666.772 264.81ZM666.767 264.808L666.143 265.862L666.183 265.883L666.221 265.902L666.767 264.808ZM663.932 183.144L665.093 183.523L665.397 182.586L664.549 182.089L663.932 183.144ZM581.012 134.589L581.629 133.534L581.621 133.529L581.614 133.524L581.012 134.589ZM581.004 134.584L580.382 135.638L580.392 135.643L580.402 135.649L581.004 134.584ZM563.057 134.584L563.66 135.648L563.669 135.643L563.679 135.638L563.057 134.584ZM563.049 134.589L562.447 133.524L562.44 133.529L562.431 133.534L563.049 134.589ZM422.1 217.127L421.481 216.071L421.474 216.075L421.466 216.08L422.1 217.127ZM422.095 217.129L422.716 218.182L422.722 218.179L422.729 218.175L422.095 217.129ZM563.685 495.699L563.678 495.695L562.424 497.795L562.431 497.798L563.685 495.699ZM580.382 495.695C575.199 498.75 568.863 498.75 563.678 495.695L562.436 497.802C568.388 501.311 575.674 501.311 581.625 497.802L580.382 495.695ZM580.467 495.649L580.459 495.652L581.548 497.841H581.556L580.467 495.649ZM721.345 413.08L580.394 495.691L581.63 497.798L722.581 415.19L721.345 413.08ZM729.763 398.243C729.763 404.367 726.549 410.012 721.34 413.082L722.586 415.187C728.546 411.674 732.21 405.225 732.21 398.243H729.763ZM729.763 302.329V398.243H732.21V302.329H729.763ZM731.406 301.179C731.117 301.074 730.837 300.942 730.573 300.786L729.332 302.894C729.728 303.128 730.144 303.323 730.568 303.478L731.406 301.179ZM730.582 300.79L730.573 300.786L729.32 302.886L729.325 302.89L730.582 300.79ZM730.561 300.782L667.389 263.755L666.152 265.864L729.325 302.89L730.561 300.782ZM667.389 263.755C665.816 262.828 664.834 261.114 664.834 259.234H662.385C662.385 261.97 663.824 264.489 666.143 265.862L667.389 263.755ZM664.834 259.234V185.172H662.385V259.234H664.834ZM664.834 185.172C664.834 184.601 664.921 184.046 665.093 183.523L662.769 182.765C662.515 183.542 662.385 184.354 662.385 185.172H664.834ZM580.392 135.643L663.313 184.199L664.549 182.089L581.629 133.534L580.392 135.643ZM580.402 135.649L580.41 135.654L581.614 133.524L581.605 133.52L580.402 135.649ZM563.679 135.638C568.863 132.582 575.199 132.582 580.382 135.638L581.625 133.532C575.674 130.024 568.388 130.024 562.436 133.532L563.679 135.638ZM563.651 135.653L563.66 135.648L562.455 133.52L562.447 133.524L563.651 135.653ZM422.716 218.182L563.669 135.643L562.431 133.534L421.481 216.071L422.716 218.182ZM422.729 218.175L422.733 218.172L421.466 216.08L421.461 216.083L422.729 218.175ZM414.298 233.018C414.298 226.893 417.51 221.252 422.716 218.182L421.474 216.075C415.515 219.59 411.853 226.037 411.853 233.018H414.298ZM414.298 398.243V233.018H411.853V398.243H414.298ZM422.72 413.082C417.512 410.012 414.298 404.367 414.298 398.243H411.853C411.853 405.225 415.517 411.674 421.478 415.187L422.72 413.082ZM563.669 495.691L422.72 413.082L421.478 415.187L562.431 497.798L563.669 495.691Z" fill="#E66124"/>
<path d="M613.627 305.544C613.348 305.543 613.072 305.485 612.818 305.372C612.563 305.259 612.334 305.095 612.146 304.889C577.316 266.604 558.815 249.935 502.244 226.585C501.794 226.399 501.427 226.056 501.213 225.619C500.998 225.182 500.95 224.682 501.078 224.212C501.342 223.243 502.278 222.605 503.282 222.75C575.903 232.539 623.397 301.163 623.868 301.861C624.064 302.153 624.182 302.493 624.207 302.845C624.233 303.198 624.165 303.551 624.01 303.868C623.857 304.186 623.622 304.457 623.328 304.653C623.034 304.85 622.695 304.967 622.342 304.991L613.754 305.552H613.627V305.544Z" fill="url(#paint7_linear_2076_4968)"/>
<path d="M691.151 373.538C691.026 373.126 690.772 372.766 690.425 372.511C690.079 372.257 689.663 372.118 689.232 372.12H689.213C689.086 372.12 684.11 372.076 673.006 367.925C663.027 364.19 651.117 353.584 648.287 350.702C648.395 350.668 648.522 350.641 648.668 350.608C649 350.54 649.311 350.391 649.573 350.174C650.326 349.537 650.759 348.634 650.804 347.579C650.964 343.744 645.554 338.207 644.936 337.594C644.107 336.76 639.437 329.522 629.017 311.88L628.738 311.405C628.689 311.328 628.655 311.243 628.61 311.167C628.331 310.631 627.914 309.814 626.697 309.007C626.545 308.901 626.373 308.821 626.197 308.769C623.195 307.798 613.667 309.262 609.516 309.968C608.912 309.219 608.002 307.978 607.645 307.484C607.432 307.188 607.213 306.897 606.99 306.608C603.901 303.002 600.615 299.57 597.149 296.326C586.16 286.007 574.558 278.582 562.65 274.244C552.46 270.527 543.504 260.857 541.361 251.227C541.189 250.453 541.02 249.628 541.02 248.897C541.019 248.446 540.866 248.008 540.586 247.655C540.305 247.301 539.913 247.053 539.474 246.951C539.035 246.849 538.573 246.898 538.165 247.091C537.757 247.283 537.427 247.609 537.227 248.013C533.705 255.174 535.95 265.006 537.507 270.034C515.035 267.839 507.057 251.134 506.725 250.411C506.359 249.602 505.491 249.144 504.607 249.263C504.176 249.326 503.778 249.528 503.473 249.838C503.167 250.148 502.971 250.549 502.914 250.981C501.128 264.275 507.167 272.542 511.19 276.464C493.533 279.491 480.544 265.365 480.409 265.211C480.152 264.924 479.818 264.718 479.446 264.617C479.075 264.516 478.683 264.524 478.316 264.641C477.949 264.758 477.623 264.978 477.377 265.275C477.131 265.572 476.976 265.934 476.929 266.317C476.861 266.878 475.603 279.645 493.993 289.605C484.244 299.055 478.895 310.675 478.086 324.173C477.151 339.796 482.688 355.795 489.714 367.475C488.845 368.438 488.234 369.606 487.937 370.868C487.695 371.864 487.653 372.9 487.814 373.912C487.974 374.925 488.333 375.897 488.871 376.771C489.404 377.647 490.106 378.41 490.935 379.013C491.765 379.615 492.705 380.049 493.703 380.286C494.315 380.43 494.928 380.505 495.539 380.505C496.961 380.505 498.355 380.114 499.597 379.356C499.367 379.493 499.129 379.613 498.9 379.724C503.17 384.946 506.096 390.049 508.111 394.464C506.572 395.547 505.483 397.157 505.049 398.989C504.808 399.985 504.766 401.019 504.927 402.029C505.088 403.042 505.447 404.012 505.985 404.883C506.518 405.759 507.219 406.522 508.049 407.122C508.877 407.725 509.818 408.158 510.816 408.396C511.412 408.537 512.023 408.608 512.637 408.608C516.098 408.608 519.254 406.279 520.173 402.806H574.728C574.922 403.539 575.223 404.24 575.621 404.883C576.154 405.759 576.855 406.519 577.685 407.122C578.514 407.725 579.454 408.158 580.452 408.396C581.064 408.539 581.669 408.608 582.273 408.608C585.794 408.608 589 406.201 589.859 402.627C590.101 401.631 590.143 400.6 589.982 399.587C589.821 398.575 589.462 397.605 588.923 396.734C588.39 395.857 587.689 395.097 586.86 394.494C586.031 393.891 585.09 393.458 584.093 393.223C582.795 392.909 581.439 392.938 580.155 393.298C573.758 383.602 562.889 371.473 549.976 361.257C550.088 360.968 550.181 360.669 550.257 360.356C550.499 359.36 550.54 358.326 550.379 357.315C550.218 356.303 549.859 355.333 549.322 354.461C548.789 353.585 548.088 352.823 547.259 352.219C546.429 351.616 545.488 351.184 544.491 350.947C543.495 350.703 542.461 350.661 541.449 350.821C540.437 350.983 539.467 351.344 538.596 351.884C538.289 352.07 538.009 352.284 537.728 352.505C524.281 343.14 520.496 329.421 522.792 320.345C523.137 318.986 523.633 317.67 524.272 316.422C524.732 316.636 525.217 316.806 525.718 316.926C526.33 317.07 526.942 317.137 527.538 317.137C531.059 317.137 534.266 314.731 535.125 311.159C535.407 309.968 535.397 308.785 535.151 307.663C536.869 307.135 538.723 306.787 540.723 306.634C563.713 304.924 587.571 322.929 592.02 326.469C591.859 333.571 592.309 340.469 597.438 346.889C601.121 351.502 611.285 356.044 619.452 359.692C622.871 361.224 625.829 362.541 627.565 363.545C629.94 364.905 651.082 377.317 663.851 393.927C664.058 394.193 664.322 394.4 664.626 394.537C664.934 394.673 665.268 394.73 665.603 394.701C665.937 394.676 666.26 394.563 666.54 394.379C666.818 394.195 667.046 393.943 667.202 393.647C668.88 390.508 682.281 381.026 690.331 375.775C690.691 375.535 690.965 375.189 691.115 374.784C691.263 374.379 691.273 373.936 691.146 373.522L691.151 373.538ZM492.222 365.619C492.222 365.619 492.248 365.612 492.265 365.603C492.248 365.603 492.24 365.612 492.222 365.619ZM520.36 401.751L520.385 401.49C520.385 401.572 520.377 401.659 520.36 401.751ZM574.499 400.136C574.499 400.051 574.507 399.966 574.523 399.872L574.499 400.136ZM522.129 314.952C522.129 314.952 522.171 314.993 522.188 315.012C522.171 314.993 522.145 314.968 522.129 314.952ZM523.107 315.759C523.107 315.759 523.192 315.809 523.226 315.845C523.183 315.819 523.141 315.793 523.107 315.759ZM534.436 305.706C534.436 305.706 534.462 305.757 534.479 305.783C534.462 305.757 534.453 305.732 534.436 305.706ZM533.884 304.813C533.918 304.864 533.96 304.924 533.994 304.975C533.96 304.924 533.926 304.864 533.884 304.813ZM510.969 393.187C510.969 393.187 511.012 393.178 511.029 393.171C511.008 393.171 510.988 393.178 510.969 393.187Z" fill="url(#paint8_linear_2076_4968)"/>
<path d="M613.626 305.544C613.348 305.543 613.072 305.485 612.817 305.372C612.562 305.259 612.333 305.095 612.145 304.889C577.315 266.604 558.814 249.935 502.243 226.585C501.793 226.4 501.427 226.056 501.212 225.619C500.997 225.182 500.95 224.682 501.078 224.212C501.342 223.243 502.277 222.605 503.281 222.75C575.902 232.539 623.397 301.163 623.868 301.861C624.064 302.153 624.181 302.493 624.206 302.845C624.232 303.198 624.165 303.55 624.01 303.868C623.857 304.186 623.621 304.457 623.328 304.653C623.034 304.85 622.695 304.967 622.342 304.991L613.754 305.552H613.626V305.544ZM522.265 230.898C565.373 250.622 583.677 267.694 614.458 301.487L618.457 301.224C609.678 289.587 574.099 246.114 522.265 230.898ZM638.3 343.683C638.275 343.544 638.216 343.413 638.128 343.301C636.631 341.447 634.831 338.29 633.198 335.611C632.373 334.267 631.589 333.034 630.867 332.108C630.5 331.64 630.151 331.248 629.789 330.941C629.42 330.645 629.028 330.38 628.459 330.364C628.199 330.364 627.915 330.449 627.694 330.602C627.488 330.748 627.316 330.941 627.193 331.164V331.189C626.821 331.884 626.698 332.737 626.693 333.705C626.698 335.476 627.159 337.584 628.283 339.151C628.734 339.763 629.352 340.357 630.058 340.953C631.878 342.484 634.199 343.922 634.807 344.287L634.856 344.388C634.905 344.5 634.969 344.687 635.027 344.976C635.086 345.308 635.347 345.572 635.68 345.639C636.2 345.741 636.592 345.801 636.951 345.801C637.289 345.801 637.647 345.76 637.985 345.486C638.147 345.352 638.27 345.175 638.334 344.976C638.385 344.823 638.411 344.662 638.412 344.5C638.412 344.16 638.344 343.929 638.3 343.693V343.683ZM514.449 393.222C512.416 392.737 510.324 393.067 508.555 394.155C506.776 395.242 505.535 396.964 505.042 398.988C504.801 399.985 504.759 401.016 504.919 402.028C505.08 403.041 505.439 404.011 505.977 404.882C506.51 405.758 507.212 406.519 508.041 407.122C508.87 407.724 509.811 408.158 510.809 408.396C511.421 408.539 512.024 408.607 512.629 408.607C516.15 408.607 519.357 406.201 520.216 402.627C520.457 401.633 520.499 400.599 520.338 399.587C520.177 398.574 519.818 397.604 519.281 396.733C518.747 395.857 518.046 395.096 517.217 394.494C516.387 393.891 515.446 393.458 514.449 393.222ZM549.322 354.459C548.79 353.583 548.088 352.821 547.259 352.218C546.43 351.615 545.489 351.182 544.491 350.945C543.496 350.702 542.462 350.66 541.45 350.821C540.438 350.982 539.468 351.343 538.597 351.882C536.819 352.97 535.577 354.69 535.084 356.712C534.842 357.708 534.8 358.742 534.961 359.754C535.122 360.766 535.482 361.736 536.02 362.608C536.553 363.484 537.254 364.246 538.083 364.849C538.912 365.452 539.853 365.885 540.851 366.12C541.463 366.264 542.076 366.342 542.688 366.342C544.109 366.342 545.512 365.948 546.754 365.194C548.531 364.105 549.773 362.387 550.266 360.362C550.508 359.366 550.549 358.333 550.389 357.322C550.229 356.31 549.87 355.34 549.332 354.468L549.322 354.459ZM582.274 408.607C581.67 408.607 581.067 408.539 580.455 408.396C579.457 408.158 578.516 407.724 577.686 407.122C576.857 406.519 576.155 405.758 575.621 404.882C575.085 404.011 574.726 403.041 574.565 402.028C574.405 401.016 574.447 399.985 574.687 398.988C574.924 397.99 575.356 397.049 575.959 396.22C576.562 395.391 577.323 394.689 578.199 394.155C579.071 393.618 580.041 393.26 581.053 393.1C582.065 392.94 583.099 392.979 584.095 393.222C585.092 393.458 586.033 393.891 586.862 394.494C587.691 395.096 588.393 395.857 588.926 396.733C589.463 397.604 589.822 398.574 589.982 399.587C590.143 400.599 590.101 401.633 589.86 402.627C589.002 406.201 585.795 408.607 582.274 408.607ZM581.389 404.501C583.43 404.993 585.49 403.724 585.975 401.692C586.092 401.207 586.113 400.703 586.035 400.211C585.958 399.716 585.784 399.243 585.522 398.817C585.263 398.391 584.921 398.019 584.516 397.724C584.112 397.432 583.653 397.22 583.167 397.107C582.682 396.99 582.178 396.968 581.685 397.046C581.191 397.124 580.718 397.298 580.292 397.559C579.866 397.818 579.495 398.16 579.201 398.565C578.908 398.97 578.697 399.429 578.583 399.914C578.465 400.399 578.443 400.903 578.521 401.397C578.598 401.892 578.773 402.365 579.034 402.791C579.293 403.215 579.634 403.585 580.036 403.879C580.439 404.174 580.896 404.383 581.38 404.501H581.389ZM495.541 380.495C494.929 380.495 494.316 380.418 493.704 380.274C492.706 380.038 491.766 379.605 490.936 379.002C490.107 378.4 489.406 377.639 488.873 376.763C488.335 375.89 487.975 374.917 487.814 373.905C487.654 372.892 487.696 371.856 487.937 370.86C488.174 369.862 488.607 368.92 489.21 368.091C489.813 367.262 490.574 366.56 491.45 366.026C492.323 365.489 493.295 365.129 494.308 364.969C495.321 364.808 496.356 364.851 497.352 365.092C498.35 365.329 499.29 365.762 500.119 366.365C500.949 366.968 501.65 367.728 502.184 368.605C502.721 369.476 503.08 370.446 503.241 371.458C503.402 372.468 503.36 373.502 503.119 374.498C502.883 375.496 502.45 376.438 501.847 377.267C501.244 378.096 500.482 378.797 499.606 379.332C498.387 380.083 496.982 380.481 495.55 380.479L495.541 380.495ZM495.515 368.885C494.816 368.885 494.129 369.08 493.533 369.447C493.107 369.706 492.735 370.048 492.442 370.453C492.148 370.858 491.938 371.317 491.824 371.804C491.705 372.289 491.684 372.793 491.762 373.285C491.839 373.78 492.013 374.253 492.275 374.677C492.534 375.105 492.876 375.475 493.281 375.77C493.685 376.062 494.144 376.271 494.631 376.386C495.116 376.504 495.62 376.526 496.113 376.45C496.607 376.372 497.08 376.198 497.506 375.937C497.933 375.678 498.304 375.336 498.597 374.931C498.891 374.526 499.101 374.067 499.215 373.58C499.333 373.095 499.355 372.591 499.277 372.099C499.2 371.604 499.026 371.131 498.765 370.705C498.505 370.279 498.163 369.909 497.758 369.615C497.354 369.32 496.895 369.111 496.409 368.995C496.116 368.925 495.816 368.889 495.515 368.885ZM527.548 317.155C526.944 317.155 526.34 317.086 525.727 316.942C521.542 315.938 518.957 311.719 519.961 307.535C520.197 306.537 520.63 305.597 521.232 304.767C521.835 303.938 522.597 303.237 523.473 302.704C524.347 302.166 525.318 301.806 526.331 301.645C527.345 301.484 528.38 301.526 529.377 301.768C533.561 302.771 536.147 306.991 535.143 311.175C534.284 314.747 531.078 317.155 527.556 317.155H527.548ZM526.663 313.047C527.643 313.279 528.675 313.114 529.534 312.588C530.393 312.062 531.009 311.217 531.248 310.239C531.733 308.206 530.473 306.148 528.441 305.654C527.956 305.536 527.452 305.515 526.958 305.593C526.465 305.67 525.991 305.844 525.566 306.106C525.139 306.366 524.768 306.708 524.475 307.112C524.181 307.516 523.971 307.975 523.856 308.461C523.363 310.503 524.63 312.552 526.663 313.047Z" fill="white"/>
<path d="M576.728 395.347C577.17 394.907 577.647 394.487 578.19 394.148C578.8 393.774 579.458 393.484 580.147 393.289C573.751 383.583 562.863 371.447 549.944 361.23C549.477 362.504 548.682 363.631 547.638 364.497C560.1 374.372 570.578 386.032 576.711 395.34L576.728 395.347Z" fill="white"/>
<path d="M520.147 402.807H574.728C574.395 401.554 574.38 400.24 574.685 398.981C574.703 398.919 574.728 398.863 574.745 398.801H535.678C530.499 392.856 506.283 363.502 509.439 337.79C510.382 330.101 513.734 323.373 519.407 317.692C519.222 318.247 519.058 318.808 518.914 319.375C515.725 331.998 522.477 346.713 535.406 355.779C535.887 354.509 536.693 353.388 537.745 352.529C524.281 343.165 520.496 329.437 522.792 320.362C523.136 319.003 523.632 317.688 524.272 316.442C522.682 315.709 521.431 314.467 520.64 312.979C512.636 319.622 507.967 327.829 506.784 337.485C504.862 353.143 512.577 369.797 519.381 381.017C524.187 388.936 529.231 395.321 532.157 398.818H520.155C520.488 400.068 520.503 401.382 520.198 402.637C520.181 402.698 520.155 402.757 520.138 402.816L520.147 402.807ZM499.598 379.348C499.368 379.484 499.13 379.604 498.899 379.715C503.178 384.945 506.112 390.059 508.12 394.481C508.264 394.377 508.392 394.25 508.554 394.156C509.558 393.539 510.69 393.162 511.863 393.052C509.719 388.288 506.572 382.759 501.945 377.113C501.331 378.015 500.534 378.775 499.605 379.348H499.598Z" fill="white"/>
<path d="M691.151 373.538C691.026 373.126 690.772 372.766 690.425 372.511C690.079 372.257 689.663 372.118 689.232 372.12H689.213C689.086 372.12 684.11 372.076 673.006 367.925C663.027 364.19 651.117 353.584 648.287 350.702C648.395 350.668 648.522 350.641 648.668 350.608C649 350.54 649.311 350.391 649.573 350.174C650.326 349.537 650.759 348.634 650.804 347.579C650.964 343.744 645.554 338.207 644.936 337.594C644.107 336.76 639.437 329.522 629.017 311.88L628.738 311.405C628.689 311.328 628.655 311.243 628.61 311.167C628.331 310.631 627.914 309.814 626.697 309.007C626.545 308.901 626.373 308.821 626.197 308.769C623.195 307.807 613.667 309.262 609.516 309.968C608.912 309.219 608.002 307.978 607.645 307.484C607.432 307.188 607.213 306.897 606.99 306.608C603.901 303.002 600.615 299.57 597.149 296.326C586.16 286.007 574.558 278.582 562.65 274.244C552.46 270.527 543.504 260.857 541.361 251.227C541.189 250.453 541.02 249.628 541.02 248.897C541.019 248.446 540.866 248.008 540.586 247.655C540.305 247.301 539.913 247.053 539.474 246.951C539.035 246.849 538.573 246.898 538.165 247.091C537.757 247.283 537.427 247.609 537.227 248.013C533.705 255.174 535.95 265.006 537.507 270.034C515.035 267.839 507.057 251.134 506.725 250.411C506.359 249.602 505.491 249.144 504.607 249.263C504.178 249.326 503.78 249.527 503.475 249.835C503.17 250.143 502.973 250.542 502.914 250.972C501.128 264.267 507.167 272.534 511.19 276.455C493.533 279.484 480.544 265.355 480.409 265.202C480.152 264.916 479.818 264.709 479.446 264.608C479.075 264.507 478.682 264.516 478.316 264.633C477.949 264.75 477.623 264.97 477.377 265.267C477.131 265.564 476.976 265.925 476.929 266.308C476.861 266.871 475.603 279.637 493.993 289.597C484.244 299.055 478.895 310.675 478.086 324.173C477.151 339.815 482.696 355.83 489.731 367.508C490.232 366.954 490.786 366.437 491.441 366.036C491.945 365.728 492.484 365.478 493.047 365.297C486.413 354.257 481.199 339.158 482.075 324.418C482.875 311.057 488.497 299.692 498.781 290.617C499.028 290.398 499.217 290.121 499.331 289.811C499.446 289.501 499.481 289.167 499.435 288.84C499.39 288.512 499.265 288.202 499.071 287.934C498.877 287.667 498.619 287.452 498.322 287.308C487.477 282.112 483.351 276.047 481.803 271.863C488.089 276.837 500.635 284.128 516.149 279.372C516.516 279.26 516.842 279.045 517.09 278.752C517.275 278.532 517.41 278.276 517.487 278C517.564 277.724 517.581 277.434 517.536 277.151C517.491 276.868 517.386 276.597 517.227 276.358C517.069 276.12 516.86 275.918 516.617 275.766C516.515 275.698 507.652 270.017 506.674 257.768C511.411 263.884 521.219 272.884 538.417 274.125H538.621C539.149 274.107 539.677 274.107 540.195 274.107C540.238 274.107 540.288 274.117 540.314 274.107C540.978 274.107 541.59 273.785 541.964 273.24C542.147 272.972 542.262 272.663 542.301 272.34C542.34 272.018 542.3 271.691 542.186 271.386C540.934 268.146 539.472 262.804 539.362 257.742C543.393 266.547 551.864 274.576 561.263 277.995C572.662 282.146 583.803 289.299 594.393 299.234C597.743 302.374 600.92 305.693 603.91 309.177C603.987 309.27 604.165 309.517 604.395 309.832C606.99 313.386 607.687 314.34 609.201 314.068C615.377 312.97 622.65 312.129 624.691 312.502C624.843 312.639 624.902 312.749 625.03 312.995C625.118 313.149 625.191 313.309 625.285 313.463L625.549 313.914C635.101 330.092 640.663 339.006 642.081 340.427C644.49 342.833 646.377 345.69 646.726 346.985C645.505 347.401 644.681 348.031 644.22 348.907C643.886 349.544 643.616 350.591 644.21 351.977C644.916 353.62 659.549 367.159 671.593 371.666C676.882 373.651 680.894 374.746 683.748 375.361C678.165 379.137 669.405 385.328 665.431 389.514C652.113 373.3 631.902 361.435 629.557 360.091C627.639 358.995 624.597 357.633 621.076 356.06C613.717 352.768 603.639 348.261 600.56 344.407C596.025 338.743 595.83 332.542 596.044 325.618C596.052 325.317 595.994 325.017 595.871 324.742C595.749 324.467 595.567 324.222 595.337 324.026C595.056 323.789 588.321 318.116 578.198 312.603C568.783 307.484 554.603 301.607 540.425 302.653C537.855 302.848 535.474 303.334 533.28 304.065C534.21 305.081 534.856 306.325 535.151 307.671C536.869 307.143 538.723 306.796 540.723 306.642C563.713 304.932 587.571 322.938 592.02 326.476C591.859 333.579 592.309 340.478 597.438 346.899C601.121 351.508 611.285 356.05 619.452 359.699C622.871 361.231 625.829 362.55 627.565 363.553C629.94 364.914 651.082 377.324 663.851 393.936C664.058 394.2 664.322 394.409 664.626 394.544C664.934 394.68 665.268 394.735 665.603 394.708C665.937 394.68 666.26 394.57 666.54 394.388C666.818 394.202 667.046 393.95 667.202 393.656C668.88 390.517 682.281 381.033 690.331 375.784C690.691 375.544 690.965 375.198 691.115 374.793C691.263 374.388 691.273 373.945 691.146 373.531L691.151 373.538Z" fill="white"/>
</g>
<defs>
<linearGradient id="paint0_linear_2076_4968" x1="1398.75" y1="1409.12" x2="161.25" y2="171.625" gradientUnits="userSpaceOnUse">
<stop stop-color="#E66124"/>
<stop offset="1" stop-color="#E66124" stop-opacity="0"/>
</linearGradient>
<linearGradient id="paint1_linear_2076_4968" x1="1557.59" y1="620.056" x2="697.425" y2="620.056" gradientUnits="userSpaceOnUse">
<stop stop-color="#E66124"/>
<stop offset="1" stop-color="#E66124" stop-opacity="0.1"/>
</linearGradient>
<linearGradient id="paint2_linear_2076_4968" x1="-203.786" y1="-33.6787" x2="656.375" y2="-33.6787" gradientUnits="userSpaceOnUse">
<stop stop-color="#E66124"/>
<stop offset="1" stop-color="#E66124" stop-opacity="0.1"/>
</linearGradient>
<linearGradient id="paint3_linear_2076_4968" x1="1147.28" y1="313.027" x2="287.114" y2="313.027" gradientUnits="userSpaceOnUse">
<stop stop-color="#E66124"/>
<stop offset="1" stop-color="#E66124" stop-opacity="0.1"/>
</linearGradient>
<linearGradient id="paint4_linear_2076_4968" x1="565.94" y1="93.9987" x2="565.94" y2="532.641" gradientUnits="userSpaceOnUse">
<stop stop-color="#2A262F"/>
<stop offset="1" stop-color="#2A262F" stop-opacity="0.1"/>
</linearGradient>
<linearGradient id="paint5_linear_2076_4968" x1="733.163" y1="141.816" x2="733.163" y2="302.77" gradientUnits="userSpaceOnUse">
<stop stop-color="#2A262F"/>
<stop offset="1" stop-color="#2A262F" stop-opacity="0.1"/>
</linearGradient>
<linearGradient id="paint6_linear_2076_4968" x1="572.029" y1="132.124" x2="572.029" y2="499.211" gradientUnits="userSpaceOnUse">
<stop stop-color="#2A262F"/>
<stop offset="1" stop-color="#2A262F" stop-opacity="0.1"/>
</linearGradient>
<linearGradient id="paint7_linear_2076_4968" x1="584.058" y1="215.254" x2="584.058" y2="597.435" gradientUnits="userSpaceOnUse">
<stop stop-color="#FF5500"/>
<stop offset="1" stop-color="#FF5500" stop-opacity="0"/>
</linearGradient>
<linearGradient id="paint8_linear_2076_4968" x1="584.067" y1="191.124" x2="584.067" y2="386.865" gradientUnits="userSpaceOnUse">
<stop stop-color="#FF5500"/>
<stop offset="1" stop-color="#FF5500" stop-opacity="0"/>
</linearGradient>
<clipPath id="clip0_2076_4968">
<rect width="1200" height="628" fill="white"/>
</clipPath>
<clipPath id="clip1_2076_4968">
<rect width="1200" height="675" fill="white" transform="translate(0 -24)"/>
</clipPath>
</defs>
</svg>
